# xmcd
#
# Track frame offsets:
#	150
#	44279
#	61485
#	119264
#	172653
#
# Disc length: 2832 seconds
#
# Revision: 1
# Processed by: cddbd v1.5.2PL0 Copyright (c) Steve Scherf et al.
# Submitted via: audiograbber 1.83.01
#
DISCID=380b0e05
DTITLE=Various Artist - Lounge Music - Restful
DYEAR=1900
DGENRE=Chilled
TTITLE0=Catch The Sun
TTITLE1=Absolute (The Sequel)
TTITLE2=Down Slow
TTITLE3=Restful
TTITLE4=Syncopation
EXTD=
EXTT0=
EXTT1=
EXTT2=
EXTT3=
EXTT4=
PLAYORDER=
